<svg width="1500" height="1500" viewBox="0 0 2984 2866" fill="none" xmlns="http://www.w3.org/2000/svg">
<rect width="2984" height="2866" fill="white" fill-opacity="0.86"/>
<path d="M1583.43 658C1630.14 658 1669.41 618.467 1649.73 576.106V576.106C1637.67 550.142 1619.99 526.551 1597.71 506.679C1575.42 486.807 1548.96 471.044 1519.84 460.29C1490.73 449.535 1459.52 444 1428 444C1396.48 444 1365.27 449.535 1336.16 460.29C1307.04 471.044 1280.58 486.807 1258.29 506.679C1236.01 526.551 1218.33 550.142 1206.27 576.106V576.106C1186.59 618.467 1225.87 658 1272.57 658L1428 658H1583.43Z" fill="black"/>
<path d="M1574.04 1989.45C1596.08 1969.8 1613.55 1946.48 1625.46 1920.84C1634.84 1900.65 1630.21 1881.22 1617.59 1866.7C1604.9 1852.11 1584.11 1842.5 1561.43 1842.5H1406L1250.57 1842.5C1227.89 1842.5 1207.1 1852.11 1194.41 1866.7C1181.79 1881.22 1177.16 1900.65 1186.54 1920.84C1198.45 1946.48 1215.92 1969.8 1237.96 1989.45C1260 2009.11 1286.19 2024.71 1315.02 2035.37C1343.86 2046.02 1374.77 2051.5 1406 2051.5C1437.23 2051.5 1468.14 2046.02 1496.98 2035.37C1525.81 2024.71 1552 2009.11 1574.04 1989.45Z" fill="black" stroke="black" stroke-width="5"/>
<rect x="1203.5" y="660.5" width="459" height="92" rx="46" fill="#F51414" stroke="black" stroke-width="5"/>
<rect x="1170.5" y="1745.5" width="459" height="92" rx="46" fill="#1438F5" stroke="black" stroke-width="5"/>
<path d="M1258.93 808.522C1277.79 788.351 1309.43 787.289 1329.6 806.149L1710.58 1162.37C1730.75 1181.23 1731.81 1212.87 1712.95 1233.04L1688.17 1259.55C1669.31 1279.72 1637.67 1280.78 1617.5 1261.92L1236.52 905.7C1216.35 886.84 1215.29 855.199 1234.15 835.029L1258.93 808.522Z" fill="#1438F5"/>
<path d="M1281.9 1017.97L1662.87 1374.19C1682.03 1392.11 1683.04 1422.17 1665.13 1441.33L1640.34 1467.84C1622.42 1487 1592.37 1488.01 1573.2 1470.09L1192.23 1113.87C1173.07 1095.96 1172.06 1065.9 1189.98 1046.74L1214.76 1020.23C1232.68 1001.07 1262.74 1000.06 1281.9 1017.97Z" fill="#D31F4A" fill-opacity="0.06" stroke="black" stroke-width="5"/>
<path d="M1143.93 1228.52C1162.79 1208.35 1194.43 1207.29 1214.6 1226.15L1595.58 1582.37C1615.75 1601.23 1616.81 1632.87 1597.95 1653.04L1573.17 1679.55C1554.31 1699.72 1522.67 1700.78 1502.5 1681.92L1121.52 1325.7C1101.35 1306.84 1100.29 1275.2 1119.15 1255.03L1143.93 1228.52Z" fill="#F51414"/>
<path d="M1442.01 744.524C1459.61 723.248 1491.13 720.27 1512.4 737.873L1657.39 857.828C1678.67 875.431 1681.64 906.949 1664.04 928.225L1640.91 956.185C1623.3 977.462 1591.79 980.439 1570.51 962.836L1425.52 842.881C1404.25 825.278 1401.27 793.76 1418.87 772.484L1442.01 744.524Z" fill="#F51414"/>
<path d="M1136.01 1492.52C1153.61 1471.25 1185.13 1468.27 1206.4 1485.87L1351.39 1605.83C1372.67 1623.43 1375.64 1654.95 1358.04 1676.23L1334.91 1704.19C1317.3 1725.46 1285.79 1728.44 1264.51 1710.84L1119.52 1590.88C1098.25 1573.28 1095.27 1541.76 1112.87 1520.48L1136.01 1492.52Z" fill="#1438F5"/>
<path d="M1668 714C1668 795.84 1668 932.1 1668 990" stroke="#F51414" stroke-width="20"/>
<mask id="path-11-inside-1_17_17" fill="white">
<path d="M1192.83 1891.58C1082.11 1863.94 982.062 1782.73 910.499 1662.39C838.935 1542.06 800.502 1390.42 802.045 1234.47C803.587 1078.53 845.004 928.407 918.92 810.837C992.836 693.268 1094.45 615.884 1205.68 592.466L1208.9 621.923C1102.71 644.281 1005.69 718.164 935.121 830.413C864.55 942.663 825.007 1085.99 823.534 1234.88C822.062 1383.77 858.756 1528.55 927.081 1643.44C995.407 1758.33 1090.93 1835.87 1196.64 1862.26L1192.83 1891.58Z"/>
</mask>
<path d="M1192.83 1891.58C1082.11 1863.94 982.062 1782.73 910.499 1662.39C838.935 1542.06 800.502 1390.42 802.045 1234.47C803.587 1078.53 845.004 928.407 918.92 810.837C992.836 693.268 1094.45 615.884 1205.68 592.466L1208.9 621.923C1102.71 644.281 1005.69 718.164 935.121 830.413C864.55 942.663 825.007 1085.99 823.534 1234.88C822.062 1383.77 858.756 1528.55 927.081 1643.44C995.407 1758.33 1090.93 1835.87 1196.64 1862.26L1192.83 1891.58Z" fill="#ED0A0A" stroke="#1F2F85" stroke-width="10" mask="url(#path-11-inside-1_17_17)"/>
<mask id="path-12-inside-2_17_17" fill="white">
<path d="M1663.17 595.421C1773.89 623.057 1873.94 704.274 1945.5 824.608C2017.06 944.943 2055.5 1096.58 2053.96 1252.53C2052.41 1408.47 2011 1558.59 1937.08 1676.16C1863.16 1793.73 1761.55 1871.12 1650.32 1894.53L1647.1 1865.08C1753.29 1842.72 1850.31 1768.84 1920.88 1656.59C1991.45 1544.34 2030.99 1401.01 2032.47 1252.12C2033.94 1103.23 1997.24 958.451 1928.92 843.562C1860.59 728.672 1765.07 651.13 1659.36 624.744L1663.17 595.421Z"/>
</mask>
<path d="M1663.17 595.421C1773.89 623.057 1873.94 704.274 1945.5 824.608C2017.06 944.943 2055.5 1096.58 2053.96 1252.53C2052.41 1408.47 2011 1558.59 1937.08 1676.16C1863.16 1793.73 1761.55 1871.12 1650.32 1894.53L1647.1 1865.08C1753.29 1842.72 1850.31 1768.84 1920.88 1656.59C1991.45 1544.34 2030.99 1401.01 2032.47 1252.12C2033.94 1103.23 1997.24 958.451 1928.92 843.562C1860.59 728.672 1765.07 651.13 1659.36 624.744L1663.17 595.421Z" fill="#ED0A0A" stroke="#1F2F85" stroke-width="10" mask="url(#path-12-inside-2_17_17)"/>
</svg>
